<mxfile host="Electron" agent="Mozilla/5.0 (Macintosh; Intel Mac OS X 10_15_7) AppleWebKit/537.36 (KHTML, like Gecko) draw.io/24.7.5 Chrome/126.0.6478.183 Electron/31.3.0 Safari/537.36" version="24.7.5">
  <diagram name="페이지-1" id="Th7AnmqlccDorJvYrBLH">
    <mxGraphModel dx="634" dy="1137" grid="1" gridSize="10" guides="1" tooltips="1" connect="1" arrows="1" fold="1" page="1" pageScale="1" pageWidth="827" pageHeight="1169" math="0" shadow="0">
      <root>
        <mxCell id="0" />
        <mxCell id="1" parent="0" />
        <mxCell id="drNJY_QcpPrPd1NQvhV1-117" value="" style="rounded=1;whiteSpace=wrap;html=1;fillColor=#f5f5f5;fontColor=#333333;strokeColor=none;" vertex="1" parent="1">
          <mxGeometry x="1152" y="10" width="370" height="550" as="geometry" />
        </mxCell>
        <mxCell id="drNJY_QcpPrPd1NQvhV1-116" value="" style="rounded=1;whiteSpace=wrap;html=1;fillColor=#f5f5f5;fontColor=#333333;strokeColor=none;" vertex="1" parent="1">
          <mxGeometry x="772" y="10" width="370" height="550" as="geometry" />
        </mxCell>
        <mxCell id="drNJY_QcpPrPd1NQvhV1-115" value="" style="rounded=1;whiteSpace=wrap;html=1;fillColor=#f5f5f5;fontColor=#333333;strokeColor=none;" vertex="1" parent="1">
          <mxGeometry x="390" y="10" width="370" height="550" as="geometry" />
        </mxCell>
        <mxCell id="drNJY_QcpPrPd1NQvhV1-114" value="" style="rounded=1;whiteSpace=wrap;html=1;fillColor=#f5f5f5;fontColor=#333333;strokeColor=none;" vertex="1" parent="1">
          <mxGeometry x="110" y="10" width="270" height="550" as="geometry" />
        </mxCell>
        <mxCell id="drNJY_QcpPrPd1NQvhV1-5" value="" style="group;fillColor=#d5e8d4;strokeColor=#82b366;container=0;" vertex="1" connectable="0" parent="1">
          <mxGeometry x="412" y="140" width="160" height="80" as="geometry" />
        </mxCell>
        <mxCell id="drNJY_QcpPrPd1NQvhV1-6" value="" style="group;fillColor=#d5e8d4;strokeColor=#82b366;fontStyle=0;container=0;" vertex="1" connectable="0" parent="1">
          <mxGeometry x="582" y="140" width="160" height="80" as="geometry" />
        </mxCell>
        <mxCell id="drNJY_QcpPrPd1NQvhV1-12" value="ㅊㅐㅜ" style="group;fillColor=#ffe6cc;strokeColor=#d79b00;" vertex="1" connectable="0" parent="1">
          <mxGeometry x="132" y="30" width="230" height="80" as="geometry" />
        </mxCell>
        <mxCell id="drNJY_QcpPrPd1NQvhV1-13" value="configuration.jar" style="rounded=0;whiteSpace=wrap;html=1;verticalAlign=top;fillColor=#ffe6cc;strokeColor=#d79b00;" vertex="1" parent="drNJY_QcpPrPd1NQvhV1-12">
          <mxGeometry width="230" height="80" as="geometry" />
        </mxCell>
        <mxCell id="drNJY_QcpPrPd1NQvhV1-14" value="팩터리" style="rounded=0;whiteSpace=wrap;html=1;fontStyle=1;fillColor=#ffe6cc;strokeColor=#d79b00;" vertex="1" parent="drNJY_QcpPrPd1NQvhV1-12">
          <mxGeometry x="43.125" y="30" width="143.75" height="40" as="geometry" />
        </mxCell>
        <mxCell id="drNJY_QcpPrPd1NQvhV1-1" value="web-adapter.jar" style="rounded=0;whiteSpace=wrap;html=1;verticalAlign=top;fillColor=#d5e8d4;strokeColor=#82b366;container=0;" vertex="1" parent="1">
          <mxGeometry x="412" y="140" width="160" height="80" as="geometry" />
        </mxCell>
        <mxCell id="drNJY_QcpPrPd1NQvhV1-2" value="웹 어댑터" style="rounded=0;whiteSpace=wrap;html=1;fillColor=#d5e8d4;strokeColor=#82b366;fontStyle=1;container=0;" vertex="1" parent="1">
          <mxGeometry x="442" y="170" width="100" height="40" as="geometry" />
        </mxCell>
        <mxCell id="drNJY_QcpPrPd1NQvhV1-7" value="persistence-adapter.jar" style="rounded=0;whiteSpace=wrap;html=1;verticalAlign=top;fillColor=#d5e8d4;strokeColor=#82b366;container=0;" vertex="1" parent="1">
          <mxGeometry x="582" y="140" width="160" height="80" as="geometry" />
        </mxCell>
        <mxCell id="drNJY_QcpPrPd1NQvhV1-8" value="영속성 어댑터" style="rounded=0;whiteSpace=wrap;html=1;fillColor=#d5e8d4;strokeColor=#82b366;fontStyle=1;container=0;" vertex="1" parent="1">
          <mxGeometry x="612" y="170" width="100" height="40" as="geometry" />
        </mxCell>
        <mxCell id="drNJY_QcpPrPd1NQvhV1-88" style="edgeStyle=orthogonalEdgeStyle;rounded=0;orthogonalLoop=1;jettySize=auto;html=1;entryX=0.5;entryY=0;entryDx=0;entryDy=0;endArrow=block;endFill=1;" edge="1" parent="1" source="drNJY_QcpPrPd1NQvhV1-10" target="drNJY_QcpPrPd1NQvhV1-19">
          <mxGeometry relative="1" as="geometry" />
        </mxCell>
        <mxCell id="drNJY_QcpPrPd1NQvhV1-10" value="adapter.jar" style="rounded=0;whiteSpace=wrap;html=1;verticalAlign=top;container=0;fillColor=#d5e8d4;strokeColor=#82b366;" vertex="1" parent="1">
          <mxGeometry x="132" y="140" width="230" height="80" as="geometry" />
        </mxCell>
        <mxCell id="drNJY_QcpPrPd1NQvhV1-11" value="영속성 어댑터" style="rounded=0;whiteSpace=wrap;html=1;fontStyle=1;container=0;fillColor=#d5e8d4;strokeColor=#82b366;" vertex="1" parent="1">
          <mxGeometry x="142" y="170" width="100" height="40" as="geometry" />
        </mxCell>
        <mxCell id="drNJY_QcpPrPd1NQvhV1-18" value="웹 어댑터" style="rounded=0;whiteSpace=wrap;html=1;fontStyle=1;container=0;fillColor=#d5e8d4;strokeColor=#82b366;" vertex="1" parent="1">
          <mxGeometry x="252" y="170" width="100" height="40" as="geometry" />
        </mxCell>
        <mxCell id="drNJY_QcpPrPd1NQvhV1-19" value="application.jar" style="rounded=0;whiteSpace=wrap;html=1;verticalAlign=top;container=0;fillColor=#dae8fc;strokeColor=#6c8ebf;" vertex="1" parent="1">
          <mxGeometry x="132" y="250" width="230" height="80" as="geometry" />
        </mxCell>
        <mxCell id="drNJY_QcpPrPd1NQvhV1-20" value="엔티티" style="rounded=0;whiteSpace=wrap;html=1;fontStyle=1;container=0;fillColor=#dae8fc;strokeColor=#6c8ebf;" vertex="1" parent="1">
          <mxGeometry x="142" y="280" width="60" height="40" as="geometry" />
        </mxCell>
        <mxCell id="drNJY_QcpPrPd1NQvhV1-21" value="서비스" style="rounded=0;whiteSpace=wrap;html=1;fontStyle=1;container=0;fillColor=#dae8fc;strokeColor=#6c8ebf;" vertex="1" parent="1">
          <mxGeometry x="217" y="280" width="60" height="40" as="geometry" />
        </mxCell>
        <mxCell id="drNJY_QcpPrPd1NQvhV1-25" value="포트" style="rounded=0;whiteSpace=wrap;html=1;fontStyle=1;container=0;fillColor=#dae8fc;strokeColor=#6c8ebf;" vertex="1" parent="1">
          <mxGeometry x="292" y="280" width="60" height="40" as="geometry" />
        </mxCell>
        <mxCell id="drNJY_QcpPrPd1NQvhV1-29" value="ㅊㅐㅜ" style="group;fillColor=#ffe6cc;strokeColor=#d79b00;container=0;" vertex="1" connectable="0" parent="1">
          <mxGeometry x="412" y="30" width="230" height="80" as="geometry" />
        </mxCell>
        <mxCell id="drNJY_QcpPrPd1NQvhV1-30" value="configuration.jar" style="rounded=0;whiteSpace=wrap;html=1;verticalAlign=top;fillColor=#ffe6cc;strokeColor=#d79b00;container=0;" vertex="1" parent="1">
          <mxGeometry x="412" y="30" width="330" height="80" as="geometry" />
        </mxCell>
        <mxCell id="drNJY_QcpPrPd1NQvhV1-31" value="팩터리" style="rounded=0;whiteSpace=wrap;html=1;fontStyle=1;fillColor=#ffe6cc;strokeColor=#d79b00;container=0;" vertex="1" parent="1">
          <mxGeometry x="512.005" y="60" width="143.75" height="40" as="geometry" />
        </mxCell>
        <mxCell id="drNJY_QcpPrPd1NQvhV1-36" value="" style="group" vertex="1" connectable="0" parent="1">
          <mxGeometry x="412" y="250" width="330" height="80" as="geometry" />
        </mxCell>
        <mxCell id="drNJY_QcpPrPd1NQvhV1-32" value="application.jar" style="rounded=0;whiteSpace=wrap;html=1;verticalAlign=top;container=0;fillColor=#dae8fc;strokeColor=#6c8ebf;" vertex="1" parent="drNJY_QcpPrPd1NQvhV1-36">
          <mxGeometry width="330" height="80" as="geometry" />
        </mxCell>
        <mxCell id="drNJY_QcpPrPd1NQvhV1-33" value="엔티티" style="rounded=0;whiteSpace=wrap;html=1;fontStyle=1;container=0;fillColor=#dae8fc;strokeColor=#6c8ebf;" vertex="1" parent="drNJY_QcpPrPd1NQvhV1-36">
          <mxGeometry x="14.347826086956522" y="30" width="86.08695652173913" height="40" as="geometry" />
        </mxCell>
        <mxCell id="drNJY_QcpPrPd1NQvhV1-34" value="서비스" style="rounded=0;whiteSpace=wrap;html=1;fontStyle=1;container=0;fillColor=#dae8fc;strokeColor=#6c8ebf;" vertex="1" parent="drNJY_QcpPrPd1NQvhV1-36">
          <mxGeometry x="121.95652173913042" y="30" width="86.08695652173913" height="40" as="geometry" />
        </mxCell>
        <mxCell id="drNJY_QcpPrPd1NQvhV1-35" value="포트" style="rounded=0;whiteSpace=wrap;html=1;fontStyle=1;container=0;fillColor=#dae8fc;strokeColor=#6c8ebf;" vertex="1" parent="drNJY_QcpPrPd1NQvhV1-36">
          <mxGeometry x="229.56521739130434" y="30" width="86.08695652173913" height="40" as="geometry" />
        </mxCell>
        <mxCell id="drNJY_QcpPrPd1NQvhV1-37" value="" style="group;fillColor=#d5e8d4;strokeColor=#82b366;container=0;" vertex="1" connectable="0" parent="1">
          <mxGeometry x="792" y="140" width="160" height="80" as="geometry" />
        </mxCell>
        <mxCell id="drNJY_QcpPrPd1NQvhV1-38" value="" style="group;fillColor=#d5e8d4;strokeColor=#82b366;fontStyle=0;container=0;" vertex="1" connectable="0" parent="1">
          <mxGeometry x="962" y="140" width="160" height="80" as="geometry" />
        </mxCell>
        <mxCell id="drNJY_QcpPrPd1NQvhV1-39" value="web-adapter.jar" style="rounded=0;whiteSpace=wrap;html=1;verticalAlign=top;fillColor=#d5e8d4;strokeColor=#82b366;container=0;" vertex="1" parent="1">
          <mxGeometry x="792" y="140" width="160" height="80" as="geometry" />
        </mxCell>
        <mxCell id="drNJY_QcpPrPd1NQvhV1-40" value="웹 어댑터" style="rounded=0;whiteSpace=wrap;html=1;fillColor=#d5e8d4;strokeColor=#82b366;fontStyle=1;container=0;" vertex="1" parent="1">
          <mxGeometry x="822" y="170" width="100" height="40" as="geometry" />
        </mxCell>
        <mxCell id="drNJY_QcpPrPd1NQvhV1-41" value="persistence-adapter.jar" style="rounded=0;whiteSpace=wrap;html=1;verticalAlign=top;fillColor=#d5e8d4;strokeColor=#82b366;container=0;" vertex="1" parent="1">
          <mxGeometry x="962" y="140" width="160" height="80" as="geometry" />
        </mxCell>
        <mxCell id="drNJY_QcpPrPd1NQvhV1-42" value="영속성 어댑터" style="rounded=0;whiteSpace=wrap;html=1;fillColor=#d5e8d4;strokeColor=#82b366;fontStyle=1;container=0;" vertex="1" parent="1">
          <mxGeometry x="992" y="170" width="100" height="40" as="geometry" />
        </mxCell>
        <mxCell id="drNJY_QcpPrPd1NQvhV1-43" value="ㅊㅐㅜ" style="group;fillColor=#ffe6cc;strokeColor=#d79b00;container=0;" vertex="1" connectable="0" parent="1">
          <mxGeometry x="792" y="30" width="230" height="80" as="geometry" />
        </mxCell>
        <mxCell id="drNJY_QcpPrPd1NQvhV1-44" value="configuration.jar" style="rounded=0;whiteSpace=wrap;html=1;verticalAlign=top;fillColor=#ffe6cc;strokeColor=#d79b00;container=0;" vertex="1" parent="1">
          <mxGeometry x="792" y="30" width="330" height="80" as="geometry" />
        </mxCell>
        <mxCell id="drNJY_QcpPrPd1NQvhV1-45" value="팩터리" style="rounded=0;whiteSpace=wrap;html=1;fontStyle=1;fillColor=#ffe6cc;strokeColor=#d79b00;container=0;" vertex="1" parent="1">
          <mxGeometry x="892.005" y="60" width="143.75" height="40" as="geometry" />
        </mxCell>
        <mxCell id="drNJY_QcpPrPd1NQvhV1-47" value="api.jar" style="rounded=0;whiteSpace=wrap;html=1;verticalAlign=top;container=0;fillColor=#dae8fc;strokeColor=#6c8ebf;" vertex="1" parent="1">
          <mxGeometry x="792" y="250" width="330" height="80" as="geometry" />
        </mxCell>
        <mxCell id="drNJY_QcpPrPd1NQvhV1-49" value="포트" style="rounded=0;whiteSpace=wrap;html=1;fontStyle=1;container=0;fillColor=#dae8fc;strokeColor=#6c8ebf;" vertex="1" parent="1">
          <mxGeometry x="913.9565217391304" y="280" width="86.08695652173913" height="40" as="geometry" />
        </mxCell>
        <mxCell id="drNJY_QcpPrPd1NQvhV1-96" style="edgeStyle=orthogonalEdgeStyle;rounded=0;orthogonalLoop=1;jettySize=auto;html=1;entryX=0.5;entryY=1;entryDx=0;entryDy=0;endArrow=block;endFill=1;" edge="1" parent="1" source="drNJY_QcpPrPd1NQvhV1-52" target="drNJY_QcpPrPd1NQvhV1-47">
          <mxGeometry relative="1" as="geometry" />
        </mxCell>
        <mxCell id="drNJY_QcpPrPd1NQvhV1-52" value="application.jar" style="rounded=0;whiteSpace=wrap;html=1;verticalAlign=top;container=0;fillColor=#dae8fc;strokeColor=#6c8ebf;" vertex="1" parent="1">
          <mxGeometry x="792" y="360" width="330" height="80" as="geometry" />
        </mxCell>
        <mxCell id="drNJY_QcpPrPd1NQvhV1-53" value="엔티티" style="rounded=0;whiteSpace=wrap;html=1;fontStyle=1;container=0;fillColor=#dae8fc;strokeColor=#6c8ebf;" vertex="1" parent="1">
          <mxGeometry x="806.3478260869565" y="390" width="86.08695652173913" height="40" as="geometry" />
        </mxCell>
        <mxCell id="drNJY_QcpPrPd1NQvhV1-55" value="서비스" style="rounded=0;whiteSpace=wrap;html=1;fontStyle=1;container=0;fillColor=#dae8fc;strokeColor=#6c8ebf;" vertex="1" parent="1">
          <mxGeometry x="1021.5652173913044" y="390" width="86.08695652173913" height="40" as="geometry" />
        </mxCell>
        <mxCell id="drNJY_QcpPrPd1NQvhV1-56" value="" style="group;fillColor=#d5e8d4;strokeColor=#82b366;container=0;" vertex="1" connectable="0" parent="1">
          <mxGeometry x="1172" y="140" width="160" height="80" as="geometry" />
        </mxCell>
        <mxCell id="drNJY_QcpPrPd1NQvhV1-57" value="" style="group;fillColor=#d5e8d4;strokeColor=#82b366;fontStyle=0;container=0;" vertex="1" connectable="0" parent="1">
          <mxGeometry x="1342" y="140" width="160" height="80" as="geometry" />
        </mxCell>
        <mxCell id="drNJY_QcpPrPd1NQvhV1-93" style="edgeStyle=orthogonalEdgeStyle;rounded=0;orthogonalLoop=1;jettySize=auto;html=1;entryX=0.5;entryY=0;entryDx=0;entryDy=0;endArrow=block;endFill=1;" edge="1" parent="1" source="drNJY_QcpPrPd1NQvhV1-58" target="drNJY_QcpPrPd1NQvhV1-65">
          <mxGeometry relative="1" as="geometry" />
        </mxCell>
        <mxCell id="drNJY_QcpPrPd1NQvhV1-58" value="web-adapter.jar" style="rounded=0;whiteSpace=wrap;html=1;verticalAlign=top;fillColor=#d5e8d4;strokeColor=#82b366;container=0;" vertex="1" parent="1">
          <mxGeometry x="1172" y="140" width="160" height="80" as="geometry" />
        </mxCell>
        <mxCell id="drNJY_QcpPrPd1NQvhV1-59" value="웹 어댑터" style="rounded=0;whiteSpace=wrap;html=1;fillColor=#d5e8d4;strokeColor=#82b366;fontStyle=1;container=0;" vertex="1" parent="1">
          <mxGeometry x="1202" y="170" width="100" height="40" as="geometry" />
        </mxCell>
        <mxCell id="drNJY_QcpPrPd1NQvhV1-94" style="edgeStyle=orthogonalEdgeStyle;rounded=0;orthogonalLoop=1;jettySize=auto;html=1;entryX=0.5;entryY=0;entryDx=0;entryDy=0;endArrow=block;endFill=1;" edge="1" parent="1" source="drNJY_QcpPrPd1NQvhV1-60" target="drNJY_QcpPrPd1NQvhV1-73">
          <mxGeometry relative="1" as="geometry" />
        </mxCell>
        <mxCell id="drNJY_QcpPrPd1NQvhV1-60" value="persistence-adapter.jar" style="rounded=0;whiteSpace=wrap;html=1;verticalAlign=top;fillColor=#d5e8d4;strokeColor=#82b366;container=0;" vertex="1" parent="1">
          <mxGeometry x="1342" y="140" width="160" height="80" as="geometry" />
        </mxCell>
        <mxCell id="drNJY_QcpPrPd1NQvhV1-61" value="영속성 어댑터" style="rounded=0;whiteSpace=wrap;html=1;fillColor=#d5e8d4;strokeColor=#82b366;fontStyle=1;container=0;" vertex="1" parent="1">
          <mxGeometry x="1372" y="170" width="100" height="40" as="geometry" />
        </mxCell>
        <mxCell id="drNJY_QcpPrPd1NQvhV1-62" value="ㅊㅐㅜ" style="group;fillColor=#ffe6cc;strokeColor=#d79b00;container=0;" vertex="1" connectable="0" parent="1">
          <mxGeometry x="1172" y="30" width="230" height="80" as="geometry" />
        </mxCell>
        <mxCell id="drNJY_QcpPrPd1NQvhV1-63" value="configuration.jar" style="rounded=0;whiteSpace=wrap;html=1;verticalAlign=top;fillColor=#ffe6cc;strokeColor=#d79b00;container=0;" vertex="1" parent="1">
          <mxGeometry x="1172" y="30" width="330" height="80" as="geometry" />
        </mxCell>
        <mxCell id="drNJY_QcpPrPd1NQvhV1-64" value="팩터리" style="rounded=0;whiteSpace=wrap;html=1;fontStyle=1;fillColor=#ffe6cc;strokeColor=#d79b00;container=0;" vertex="1" parent="1">
          <mxGeometry x="1272.005" y="60" width="143.75" height="40" as="geometry" />
        </mxCell>
        <mxCell id="drNJY_QcpPrPd1NQvhV1-65" value="api-in.jar" style="rounded=0;whiteSpace=wrap;html=1;verticalAlign=top;container=0;fillColor=#dae8fc;strokeColor=#6c8ebf;" vertex="1" parent="1">
          <mxGeometry x="1172" y="250" width="160" height="80" as="geometry" />
        </mxCell>
        <mxCell id="drNJY_QcpPrPd1NQvhV1-66" value="입력 포트" style="rounded=0;whiteSpace=wrap;html=1;fontStyle=1;container=0;fillColor=#dae8fc;strokeColor=#6c8ebf;" vertex="1" parent="1">
          <mxGeometry x="1202" y="280" width="100" height="40" as="geometry" />
        </mxCell>
        <mxCell id="drNJY_QcpPrPd1NQvhV1-67" value="application.jar" style="rounded=0;whiteSpace=wrap;html=1;verticalAlign=top;container=0;fillColor=#dae8fc;strokeColor=#6c8ebf;" vertex="1" parent="1">
          <mxGeometry x="1172" y="360" width="330" height="80" as="geometry" />
        </mxCell>
        <mxCell id="drNJY_QcpPrPd1NQvhV1-69" value="서비스" style="rounded=0;whiteSpace=wrap;html=1;fontStyle=1;container=0;fillColor=#dae8fc;strokeColor=#6c8ebf;" vertex="1" parent="1">
          <mxGeometry x="1293.9552173913046" y="390" width="86.08695652173913" height="40" as="geometry" />
        </mxCell>
        <mxCell id="drNJY_QcpPrPd1NQvhV1-95" style="edgeStyle=orthogonalEdgeStyle;rounded=0;orthogonalLoop=1;jettySize=auto;html=1;entryX=0.5;entryY=1;entryDx=0;entryDy=0;endArrow=block;endFill=1;" edge="1" parent="1" source="drNJY_QcpPrPd1NQvhV1-70" target="drNJY_QcpPrPd1NQvhV1-67">
          <mxGeometry relative="1" as="geometry" />
        </mxCell>
        <mxCell id="drNJY_QcpPrPd1NQvhV1-70" value="domain.jar" style="rounded=0;whiteSpace=wrap;html=1;verticalAlign=top;container=0;fillColor=#f8cecc;strokeColor=#b85450;" vertex="1" parent="1">
          <mxGeometry x="1172" y="470" width="330" height="80" as="geometry" />
        </mxCell>
        <mxCell id="drNJY_QcpPrPd1NQvhV1-71" value="엔티티" style="rounded=0;whiteSpace=wrap;html=1;fontStyle=1;container=0;fillColor=#f8cecc;strokeColor=#b85450;" vertex="1" parent="1">
          <mxGeometry x="1293.9578260869564" y="500" width="86.08695652173913" height="40" as="geometry" />
        </mxCell>
        <mxCell id="drNJY_QcpPrPd1NQvhV1-73" value="api-out.jar" style="rounded=0;whiteSpace=wrap;html=1;verticalAlign=top;container=0;fillColor=#dae8fc;strokeColor=#6c8ebf;" vertex="1" parent="1">
          <mxGeometry x="1342" y="250" width="160" height="80" as="geometry" />
        </mxCell>
        <mxCell id="drNJY_QcpPrPd1NQvhV1-74" value="출력 포트" style="rounded=0;whiteSpace=wrap;html=1;fontStyle=1;container=0;fillColor=#dae8fc;strokeColor=#6c8ebf;" vertex="1" parent="1">
          <mxGeometry x="1372" y="280" width="100" height="40" as="geometry" />
        </mxCell>
        <mxCell id="drNJY_QcpPrPd1NQvhV1-76" value="설정" style="text;html=1;align=center;verticalAlign=middle;whiteSpace=wrap;rounded=0;fillColor=#ffe6cc;strokeColor=none;" vertex="1" parent="1">
          <mxGeometry x="20" y="55" width="80" height="30" as="geometry" />
        </mxCell>
        <mxCell id="drNJY_QcpPrPd1NQvhV1-80" value="어댑터" style="text;html=1;align=center;verticalAlign=middle;whiteSpace=wrap;rounded=0;fillColor=#d5e8d4;strokeColor=none;" vertex="1" parent="1">
          <mxGeometry x="20" y="160" width="80" height="30" as="geometry" />
        </mxCell>
        <mxCell id="drNJY_QcpPrPd1NQvhV1-81" value="애플리케이션" style="text;html=1;align=center;verticalAlign=middle;whiteSpace=wrap;rounded=0;fillColor=#dae8fc;strokeColor=none;" vertex="1" parent="1">
          <mxGeometry x="20" y="270" width="80" height="30" as="geometry" />
        </mxCell>
        <mxCell id="drNJY_QcpPrPd1NQvhV1-82" value="도메인" style="text;html=1;align=center;verticalAlign=middle;whiteSpace=wrap;rounded=0;fillColor=#f8cecc;strokeColor=none;" vertex="1" parent="1">
          <mxGeometry x="20" y="495" width="80" height="30" as="geometry" />
        </mxCell>
        <mxCell id="drNJY_QcpPrPd1NQvhV1-83" value="설정" style="text;html=1;align=center;verticalAlign=middle;whiteSpace=wrap;rounded=0;fillColor=#ffe6cc;strokeColor=none;" vertex="1" parent="1">
          <mxGeometry x="1530" y="55" width="80" height="30" as="geometry" />
        </mxCell>
        <mxCell id="drNJY_QcpPrPd1NQvhV1-84" value="어댑터" style="text;html=1;align=center;verticalAlign=middle;whiteSpace=wrap;rounded=0;fillColor=#d5e8d4;strokeColor=none;" vertex="1" parent="1">
          <mxGeometry x="1530" y="160" width="80" height="30" as="geometry" />
        </mxCell>
        <mxCell id="drNJY_QcpPrPd1NQvhV1-85" value="애플리케이션" style="text;html=1;align=center;verticalAlign=middle;whiteSpace=wrap;rounded=0;fillColor=#dae8fc;strokeColor=none;" vertex="1" parent="1">
          <mxGeometry x="1530" y="270" width="80" height="30" as="geometry" />
        </mxCell>
        <mxCell id="drNJY_QcpPrPd1NQvhV1-86" value="도메인" style="text;html=1;align=center;verticalAlign=middle;whiteSpace=wrap;rounded=0;fillColor=#f8cecc;strokeColor=none;" vertex="1" parent="1">
          <mxGeometry x="1530" y="495" width="80" height="30" as="geometry" />
        </mxCell>
        <mxCell id="drNJY_QcpPrPd1NQvhV1-87" style="edgeStyle=orthogonalEdgeStyle;rounded=0;orthogonalLoop=1;jettySize=auto;html=1;entryX=0.5;entryY=0;entryDx=0;entryDy=0;endArrow=block;endFill=1;" edge="1" parent="1" source="drNJY_QcpPrPd1NQvhV1-13" target="drNJY_QcpPrPd1NQvhV1-10">
          <mxGeometry relative="1" as="geometry" />
        </mxCell>
        <mxCell id="drNJY_QcpPrPd1NQvhV1-98" style="edgeStyle=orthogonalEdgeStyle;rounded=0;orthogonalLoop=1;jettySize=auto;html=1;entryX=0.5;entryY=0;entryDx=0;entryDy=0;endArrow=block;endFill=1;" edge="1" parent="1">
          <mxGeometry relative="1" as="geometry">
            <mxPoint x="491.5" y="110" as="sourcePoint" />
            <mxPoint x="491.5" y="140" as="targetPoint" />
          </mxGeometry>
        </mxCell>
        <mxCell id="drNJY_QcpPrPd1NQvhV1-99" style="edgeStyle=orthogonalEdgeStyle;rounded=0;orthogonalLoop=1;jettySize=auto;html=1;entryX=0.5;entryY=0;entryDx=0;entryDy=0;endArrow=block;endFill=1;" edge="1" parent="1">
          <mxGeometry relative="1" as="geometry">
            <mxPoint x="661.5" y="110" as="sourcePoint" />
            <mxPoint x="661.5" y="140" as="targetPoint" />
          </mxGeometry>
        </mxCell>
        <mxCell id="drNJY_QcpPrPd1NQvhV1-100" style="edgeStyle=orthogonalEdgeStyle;rounded=0;orthogonalLoop=1;jettySize=auto;html=1;entryX=0.5;entryY=0;entryDx=0;entryDy=0;endArrow=block;endFill=1;" edge="1" parent="1">
          <mxGeometry relative="1" as="geometry">
            <mxPoint x="491.5" y="220" as="sourcePoint" />
            <mxPoint x="491.5" y="250" as="targetPoint" />
          </mxGeometry>
        </mxCell>
        <mxCell id="drNJY_QcpPrPd1NQvhV1-101" style="edgeStyle=orthogonalEdgeStyle;rounded=0;orthogonalLoop=1;jettySize=auto;html=1;entryX=0.5;entryY=0;entryDx=0;entryDy=0;endArrow=block;endFill=1;" edge="1" parent="1">
          <mxGeometry relative="1" as="geometry">
            <mxPoint x="661.5" y="220" as="sourcePoint" />
            <mxPoint x="661.5" y="250" as="targetPoint" />
          </mxGeometry>
        </mxCell>
        <mxCell id="drNJY_QcpPrPd1NQvhV1-106" style="edgeStyle=orthogonalEdgeStyle;rounded=0;orthogonalLoop=1;jettySize=auto;html=1;entryX=0.5;entryY=0;entryDx=0;entryDy=0;endArrow=block;endFill=1;" edge="1" parent="1">
          <mxGeometry relative="1" as="geometry">
            <mxPoint x="871.5" y="110" as="sourcePoint" />
            <mxPoint x="871.5" y="140" as="targetPoint" />
          </mxGeometry>
        </mxCell>
        <mxCell id="drNJY_QcpPrPd1NQvhV1-107" style="edgeStyle=orthogonalEdgeStyle;rounded=0;orthogonalLoop=1;jettySize=auto;html=1;entryX=0.5;entryY=0;entryDx=0;entryDy=0;endArrow=block;endFill=1;" edge="1" parent="1">
          <mxGeometry relative="1" as="geometry">
            <mxPoint x="871.5" y="220" as="sourcePoint" />
            <mxPoint x="871.5" y="250" as="targetPoint" />
          </mxGeometry>
        </mxCell>
        <mxCell id="drNJY_QcpPrPd1NQvhV1-108" style="edgeStyle=orthogonalEdgeStyle;rounded=0;orthogonalLoop=1;jettySize=auto;html=1;entryX=0.5;entryY=0;entryDx=0;entryDy=0;endArrow=block;endFill=1;" edge="1" parent="1">
          <mxGeometry relative="1" as="geometry">
            <mxPoint x="1041.5" y="110" as="sourcePoint" />
            <mxPoint x="1041.5" y="140" as="targetPoint" />
          </mxGeometry>
        </mxCell>
        <mxCell id="drNJY_QcpPrPd1NQvhV1-109" style="edgeStyle=orthogonalEdgeStyle;rounded=0;orthogonalLoop=1;jettySize=auto;html=1;entryX=0.5;entryY=0;entryDx=0;entryDy=0;endArrow=block;endFill=1;" edge="1" parent="1">
          <mxGeometry relative="1" as="geometry">
            <mxPoint x="1041.5" y="220" as="sourcePoint" />
            <mxPoint x="1041.5" y="250" as="targetPoint" />
          </mxGeometry>
        </mxCell>
        <mxCell id="drNJY_QcpPrPd1NQvhV1-110" style="edgeStyle=orthogonalEdgeStyle;rounded=0;orthogonalLoop=1;jettySize=auto;html=1;entryX=0.5;entryY=0;entryDx=0;entryDy=0;endArrow=block;endFill=1;" edge="1" parent="1">
          <mxGeometry relative="1" as="geometry">
            <mxPoint x="1251.5" y="110" as="sourcePoint" />
            <mxPoint x="1251.5" y="140" as="targetPoint" />
          </mxGeometry>
        </mxCell>
        <mxCell id="drNJY_QcpPrPd1NQvhV1-111" style="edgeStyle=orthogonalEdgeStyle;rounded=0;orthogonalLoop=1;jettySize=auto;html=1;entryX=0.5;entryY=0;entryDx=0;entryDy=0;endArrow=block;endFill=1;" edge="1" parent="1">
          <mxGeometry relative="1" as="geometry">
            <mxPoint x="1421.5" y="110" as="sourcePoint" />
            <mxPoint x="1421.5" y="140" as="targetPoint" />
          </mxGeometry>
        </mxCell>
        <mxCell id="drNJY_QcpPrPd1NQvhV1-112" style="edgeStyle=orthogonalEdgeStyle;rounded=0;orthogonalLoop=1;jettySize=auto;html=1;entryX=0.5;entryY=0;entryDx=0;entryDy=0;endArrow=none;endFill=0;startArrow=block;startFill=1;" edge="1" parent="1">
          <mxGeometry relative="1" as="geometry">
            <mxPoint x="1251.5" y="330" as="sourcePoint" />
            <mxPoint x="1251.5" y="360" as="targetPoint" />
          </mxGeometry>
        </mxCell>
        <mxCell id="drNJY_QcpPrPd1NQvhV1-113" style="edgeStyle=orthogonalEdgeStyle;rounded=0;orthogonalLoop=1;jettySize=auto;html=1;entryX=0.5;entryY=0;entryDx=0;entryDy=0;endArrow=none;endFill=0;startArrow=block;startFill=1;" edge="1" parent="1">
          <mxGeometry relative="1" as="geometry">
            <mxPoint x="1421.5" y="330" as="sourcePoint" />
            <mxPoint x="1421.5" y="360" as="targetPoint" />
          </mxGeometry>
        </mxCell>
      </root>
    </mxGraphModel>
  </diagram>
</mxfile>
